<svg width="379" height="284" viewBox="0 0 379 284" fill="none" xmlns="http://www.w3.org/2000/svg">
<path opacity="0.45" d="M191.878 249.854C284.872 249.854 360.258 243.132 360.258 234.84C360.258 226.548 284.872 219.825 191.878 219.825C98.8844 219.825 23.498 226.548 23.498 234.84C23.498 243.132 98.8844 249.854 191.878 249.854Z" fill="#525369"/>
<path d="M94.5794 192.429H38.1748V233.278H94.5794V192.429Z" fill="#2D3050"/>
<path opacity="0.45" d="M100.539 158.33H53.6569V192.278H100.539V158.33Z" fill="#525369"/>
<path d="M325.836 163.66H317.232V161.766H325.836C326.136 161.768 326.434 161.71 326.713 161.596C326.991 161.481 327.244 161.314 327.457 161.102C327.67 160.89 327.839 160.638 327.954 160.36C328.069 160.083 328.129 159.785 328.129 159.485V153.36C328.129 152.752 327.887 152.17 327.457 151.74C327.027 151.31 326.444 151.069 325.836 151.069H317.232V149.176H325.836C326.946 149.176 328.012 149.617 328.797 150.401C329.582 151.186 330.024 152.25 330.024 153.36V159.513C330.014 160.617 329.568 161.671 328.784 162.448C327.999 163.224 326.94 163.66 325.836 163.66Z" fill="#3CD3C1"/>
<path d="M325.836 163.66H317.232V161.766H325.836C326.136 161.768 326.434 161.71 326.713 161.596C326.991 161.481 327.244 161.314 327.457 161.102C327.67 160.89 327.839 160.638 327.954 160.36C328.069 160.083 328.129 159.785 328.129 159.485V153.36C328.129 152.752 327.887 152.17 327.457 151.74C327.027 151.31 326.444 151.069 325.836 151.069H317.232V149.176H325.836C326.946 149.176 328.012 149.617 328.797 150.401C329.582 151.186 330.024 152.25 330.024 153.36V159.513C330.014 160.617 329.568 161.671 328.784 162.448C327.999 163.224 326.94 163.66 325.836 163.66Z" fill="#F56161"/>
<path d="M328.65 208.664H298.567V212.527H328.65V208.664Z" fill="#404261"/>
<path d="M90.7042 208.134L87.0279 233.287H96.0102L102.141 208.134H90.7042Z" fill="#272A48"/>
<path d="M98.4263 209.213L94.75 234.366H103.732L109.863 209.213H98.4263Z" fill="#3CD3C1"/>
<path d="M246.416 208.267L250.093 233.42H241.11L234.98 208.267H246.416Z" fill="#3CD3C1"/>
<path d="M72.8438 186.91L75.2789 199.794C76.0584 203.924 78.2574 207.653 81.496 210.336C84.7346 213.018 88.8092 214.486 93.0161 214.486H256.64C261.963 214.485 267.135 212.718 271.345 209.463C275.555 206.207 278.564 201.648 279.901 196.5L282.412 186.882L72.8438 186.91Z" fill="#3CD3C1"/>
<path d="M80.5944 176.544L74.5493 180.993C73.696 181.624 73.0625 182.507 72.7381 183.517C72.4138 184.527 72.415 185.613 72.7416 186.622C73.0682 187.632 73.7037 188.513 74.5584 189.142C75.4131 189.771 76.444 190.116 77.5055 190.129L275.817 192.268C277.126 192.287 278.411 191.919 279.511 191.21C280.611 190.501 281.476 189.483 281.998 188.283C282.52 187.084 282.674 185.757 282.443 184.47C282.211 183.183 281.604 181.993 280.697 181.05L276.405 176.544H80.5944Z" fill="#87E7DB"/>
<path d="M80.5943 176.544C80.5943 176.544 60.0052 110.845 106.12 106.765C143.849 103.423 229.513 105.553 259.312 106.434C269.194 106.727 278.177 112.455 282.052 121.325C286.714 131.994 288.381 149.441 276.462 176.544H80.5943Z" fill="#3CD3C1"/>
<path d="M126.965 217.809C126.965 217.809 127.543 221.236 125.07 222.893C122.597 224.549 123.355 227.446 126.017 226.812C128.68 226.178 133.02 219.854 133.02 219.854L130.764 216.228L126.965 217.809Z" fill="#F231A5"/>
<path d="M170.095 91.59C170.095 91.59 130.025 87.3489 131.541 108.516C133.057 129.684 155.513 174.783 155.513 174.783H204.707C204.707 174.783 248.889 116.696 230.726 98.2924C212.562 79.8892 201.581 96.56 170.095 91.59Z" fill="#F231A5"/>
<path d="M170.55 93.3602C170.55 93.3602 165.377 107.447 174.226 110.296C183.076 113.146 187.975 101.965 185.521 96.0961C183.066 90.2267 170.55 93.3602 170.55 93.3602Z" fill="#FFC9C9"/>
<path opacity="0.08" d="M155.826 119.592C155.826 119.592 150.946 159.703 175.894 163.66C200.842 167.617 212.363 163.915 212.363 163.915L204.707 174.821L154.812 173.391C154.812 173.391 139.709 140.4 138.922 136.471C138.136 132.543 155.826 119.592 155.826 119.592Z" fill="black"/>
<path opacity="0.08" d="M170.55 93.3602C170.55 93.3602 165.377 107.447 174.226 110.296C183.076 113.146 187.975 101.965 185.521 96.0961C183.066 90.2267 170.55 93.3602 170.55 93.3602Z" fill="#FFC9C9"/>
<path d="M171.498 91.9024C171.777 93.6866 171.957 95.4849 172.038 97.289C172.113 99.7692 172.909 103.442 176.822 104.171C182.849 105.288 184.402 95.7554 184.402 95.7554C184.402 95.7554 188.192 86.8188 181.674 85.5976C175.847 84.49 170.294 83.7043 171.498 91.9024Z" fill="#FFC9C9"/>
<path d="M184.08 96.1435C184.08 96.1435 184.421 93.2467 186.923 93.3698C189.424 93.4928 188.486 98.8983 184.08 96.1435Z" fill="#FFC9C9"/>
<path d="M172.947 94.5246C172.947 94.5246 173.838 91.7508 171.488 90.8136C169.138 89.8764 167.802 95.2156 172.947 94.5246Z" fill="#FFC9C9"/>
<path d="M157.114 105.913C156.06 103.732 154.562 101.794 152.717 100.222C150.872 98.6507 148.72 97.48 146.398 96.7846C144.075 96.0892 141.633 95.8843 139.227 96.183C136.821 96.4818 134.504 97.2775 132.423 98.5197C120.389 105.62 105.656 120.88 106.622 152.849C108.034 199.008 173.118 167.125 173.118 167.125L170.692 160.204C170.692 160.204 122.493 175.285 131.504 148.778C139.046 126.569 166.04 124.865 157.114 105.913Z" fill="#FFC9C9"/>
<path d="M157.086 173.401L204.707 174.821C204.707 174.821 238.277 177.935 238.685 189.968C239.007 199.482 198.463 193.944 181.503 191.217C173.063 189.818 164.442 189.937 156.044 191.567C142.779 194.199 129.286 190.176 132.896 217.194L125.809 218.926C125.809 218.926 107.134 172.937 157.086 173.401Z" fill="#06092B"/>
<path d="M194.351 157.204H177.296C175.768 157.204 174.529 158.441 174.529 159.968V163.546C174.529 165.073 175.768 166.311 177.296 166.311H194.351C195.879 166.311 197.118 165.073 197.118 163.546V159.968C197.118 158.441 195.879 157.204 194.351 157.204Z" fill="#3CD3C1"/>
<path d="M170.692 160.204C170.692 160.204 172.824 153.123 175.202 153.057C177.58 152.991 181.115 152.925 180.537 155.575C179.959 158.226 175.543 156.882 176.027 158.699C176.51 160.517 181.399 159.788 183.843 161.624C186.288 163.461 186.686 168.421 173.118 167.125L170.692 160.204Z" fill="#FFC9C9"/>
<path d="M202.301 104.37C202.826 102.007 203.837 99.7784 205.27 97.8264C206.703 95.8744 208.526 94.2412 210.624 93.0306C212.722 91.8201 215.049 91.0584 217.458 90.7941C219.866 90.5298 222.303 90.7686 224.614 91.4953C237.965 95.6417 255.825 107.096 262.249 138.431C271.525 183.653 200.87 167.626 200.87 167.626L201.628 160.327C201.628 160.327 252.007 163.915 237.131 140.192C224.643 120.321 198.027 124.875 202.301 104.37Z" fill="#FFC9C9"/>
<path d="M201.6 160.327C201.6 160.327 197.895 153.928 195.564 154.411C193.233 154.894 189.784 155.641 190.95 158.093C192.115 160.545 196.114 158.216 196.066 160.091C196.019 161.965 191.082 162.391 189.121 164.739C187.16 167.087 187.946 172 200.842 167.579L201.6 160.327Z" fill="#FFC9C9"/>
<path d="M181.74 186.91C181.74 186.91 173.781 194.247 176.434 197.323C179.087 200.4 184.08 191.643 184.08 191.643L181.74 186.91Z" fill="#F231A5"/>
<path d="M297.316 174.821L293.526 233.287H297.316L305.37 174.821H297.316Z" fill="#2D3050"/>
<path d="M328.584 174.821L332.374 233.287H328.584L320.53 174.821H328.584Z" fill="#2D3050"/>
<path d="M332.374 167.342H293.526V176.544H332.374V167.342Z" fill="#272A4D"/>
<path d="M322.122 144.84H305.37V167.342H322.122V144.84Z" fill="#F56161"/>
<path opacity="0.08" d="M313.954 161.331C316.722 161.331 318.966 158.822 318.966 155.727C318.966 152.631 316.722 150.122 313.954 150.122C311.186 150.122 308.942 152.631 308.942 155.727C308.942 158.822 311.186 161.331 313.954 161.331Z" fill="black"/>
<path d="M307.938 144.84C307.938 144.84 305.569 136.954 311.879 136.159C318.189 135.364 326.888 136.954 323.647 127.487C320.407 118.021 316.143 120.066 320.88 109.34C325.618 98.6142 338.096 117.699 342.673 107.608C347.249 97.516 353.569 100.981 359.889 105.951C366.209 110.921 367.469 126.38 354.99 128.747C342.512 131.113 339.991 133.811 337.462 140.75C334.932 147.689 322.15 144.84 322.15 144.84H307.938Z" fill="#D1D1D1" fill-opacity="0.07"/>
<path d="M169.081 88.1157C169.081 88.1157 165.708 80.1069 172.871 77.7024C172.871 77.7024 170.029 79.5957 171.441 88.0305L169.081 88.1157Z" fill="#3CD3C1"/>
<path d="M187.908 91.609C187.908 91.609 191.698 81.1199 182.697 77.4658C182.697 77.4658 188.714 82.1234 185.539 91.2871L187.908 91.609Z" fill="#3CD3C1"/>
<path opacity="0.08" d="M169.081 88.1157C169.081 88.1157 165.708 80.1069 172.871 77.7024C172.871 77.7024 170.029 79.5957 171.441 88.0305L169.081 88.1157Z" fill="black"/>
<path opacity="0.08" d="M187.908 91.609C187.908 91.609 191.698 81.1199 182.697 77.4658C182.697 77.4658 188.714 82.1234 185.539 91.2871L187.908 91.609Z" fill="black"/>
<path d="M171.497 88.873C171.497 88.873 176.415 89.8196 179.646 86.1845C179.646 86.1845 183.019 91.9307 185.397 92.0916C185.397 92.0916 187.074 88.1535 186.999 85.6733C186.923 83.193 189.794 82.909 188.733 79.8702C187.671 76.8314 185.104 76.0835 182.716 77.4657C182.716 77.4657 183.957 75.1842 181.664 74.7109C179.371 74.2375 172.852 77.6266 172.852 77.6266C172.852 77.6266 169.261 80.1163 171.497 88.873Z" fill="#2C2F54"/>
<path d="M185.511 97.7433C185.511 97.7433 184.09 102.988 179.115 101.634V100.347C179.115 100.347 182.65 101.786 184.279 96.9197L185.511 97.7433Z" fill="#3CD3C1"/>
<path d="M167.016 88.8069C166.286 91.3913 166.144 95.4335 171.971 96.0678L171.422 88.0401C171.398 87.6675 171.232 87.3182 170.959 87.0632C170.687 86.8082 170.327 86.6666 169.953 86.6674C169.298 86.6605 168.659 86.865 168.129 87.2505C167.6 87.636 167.21 88.1818 167.016 88.8069Z" fill="#3CD3C1"/>
<path d="M189.841 91.625C190.154 94.2852 189.671 98.2517 183.815 98.0245L185.615 90.1293C185.699 89.7677 185.917 89.4509 186.224 89.2422C186.531 89.0334 186.906 88.9479 187.273 89.0028C187.928 89.1021 188.533 89.4117 188.996 89.8848C189.459 90.3579 189.756 90.9687 189.841 91.625Z" fill="#3CD3C1"/>
<path d="M178.357 102.363C179.179 102.363 179.845 101.698 179.845 100.877C179.845 100.056 179.179 99.3906 178.357 99.3906C177.536 99.3906 176.87 100.056 176.87 100.877C176.87 101.698 177.536 102.363 178.357 102.363Z" fill="#3CD3C1"/>
<path opacity="0.46" d="M178.357 102.363C179.179 102.363 179.845 101.698 179.845 100.877C179.845 100.056 179.179 99.3906 178.357 99.3906C177.536 99.3906 176.87 100.056 176.87 100.877C176.87 101.698 177.536 102.363 178.357 102.363Z" fill="white"/>
<path d="M206.719 159.708L201.976 159.351L201.236 169.188L205.979 169.544L206.719 159.708Z" fill="#F231A5"/>
<path opacity="0.46" d="M206.719 159.708L201.976 159.351L201.236 169.188L205.979 169.544L206.719 159.708Z" fill="#3CD3C1"/>
<path d="M171.645 100.278C171.649 98.9393 171.583 97.7203 171.497 96.0867C172.2 100.364 173.349 102.169 176.709 104.133C176.031 104.078 175.458 103.989 174.898 103.901L174.868 103.897C173.089 103.619 171.639 102.078 171.645 100.278Z" fill="black" fill-opacity="0.04"/>
</svg>
